<svg xmlns="http://www.w3.org/2000/svg" viewBox="0 0 24 24" fill="none" stroke="#22c55e" stroke-width="2" stroke-linecap="round" stroke-linejoin="round">
  <circle cx="12" cy="12" r="10" fill="#0f172a" stroke="#22c55e"/>
  <path d="M12 2 L14 7 L19 7 L15.5 10.5 L17 15.5 L12 12 L7 15.5 L8.5 10.5 L5 7 L10 7 Z" fill="#22c55e" stroke="none"/>
  <path d="M12 2 L10 7" stroke="#0f172a" stroke-width="1"/>
  <path d="M14 7 L19 7" stroke="#0f172a" stroke-width="1"/>
  <path d="M19 7 L15.5 10.5" stroke="#0f172a" stroke-width="1"/>
  <path d="M15.5 10.5 L17 15.5" stroke="#0f172a" stroke-width="1"/>
  <path d="M17 15.5 L12 12" stroke="#0f172a" stroke-width="1"/>
  <path d="M12 12 L7 15.5" stroke="#0f172a" stroke-width="1"/>
  <path d="M7 15.5 L8.5 10.5" stroke="#0f172a" stroke-width="1"/>
  <path d="M8.5 10.5 L5 7" stroke="#0f172a" stroke-width="1"/>
  <path d="M5 7 L10 7" stroke="#0f172a" stroke-width="1"/>
  <path d="M10 7 L12 2" stroke="#0f172a" stroke-width="1"/>
</svg>
